<svg class="page-header__brand-graphics" xmlns="https://www.w3.org/2000/svg" viewbox="0 0 101 17"><path class="bbst0" d="M89.4 10.2c0-4 1.1-6.8 5.8-6.8s5.8 2.8 5.8 6.8-1.1 6.8-5.8 6.8c-4.6 0-5.8-2.8-5.8-6.8zm8.7 0c0-2.8-.4-4.4-2.8-4.4s-2.8 1.6-2.8 4.4.4 4.4 2.8 4.4 2.8-1.7 2.8-4.4zm-89 6.3c.1.1.2.2.3.2h1.1c.2 0 .4-.2.4-.4V4c0-.2-.2-.4-.4-.4H8.4c-.2 0-.4.2-.4.4v9.7c-.9.5-2 .8-3 .8-1.4 0-2.1-.6-2.1-1.9V4c0-.2-.2-.4-.4-.4H.4c-.2 0-.4.2-.4.4v8.8C0 15.3 1.2 17 4.5 17c1.5 0 3-.5 4.2-1.4l.4.9zm24.4-9c0-2.5-1.2-4.2-4.3-4.2-1.5 0-2.9.5-4.2 1.3-.5-.8-1.6-1.3-3.3-1.3-1.4 0-2.8.5-3.9 1.4l-.4-.9c-.1-.1-.2-.2-.3-.2H16c-.2 0-.4.2-.4.4v12.3c0 .2.2.4.4.4h2.2c.2 0 .4-.2.4-.4V6.6c.8-.5 1.8-.8 2.7-.8 1.2 0 1.9.4 1.9 1.7v8.8c0 .2.2.4.4.4h2.2c.2 0 .4-.2.4-.4V6.6c.8-.5 1.8-.8 2.7-.8 1.1 0 1.9.4 1.9 1.7v8.8c0 .2.2.4.4.4h2.2c.2 0 .4-.2.4-.4l-.3-8.8zm6.7 8.1c1.2.9 2.7 1.4 4.2 1.4 3.8 0 5.2-2.6 5.2-6.8s-1.4-6.8-5.2-6.8c-1.2 0-2.5.4-3.5 1v-4c0-.2-.2-.4-.4-.4h-2.2c-.2 0-.3.2-.3.4v15.9c0 .2.2.4.4.4h1.1c.1 0 .3-.1.3-.2l.4-.9zm3.5-1.1c-1 0-2-.3-2.8-.8V6.6c.9-.5 1.8-.8 2.8-.8 2.6 0 2.9 2 2.9 4.4s-.3 4.3-2.9 4.3zm16.7-8.6c-.3 0-.7-.1-1-.1-1.2 0-2.3.2-3.3.8v9.7c0 .2-.2.4-.4.4h-2.2c-.2 0-.4-.2-.4-.4V4c0-.2.2-.4.4-.4h1.1c.1 0 .3.1.3.2l.4.9c1.2-.9 2.6-1.4 4.1-1.4.3 0 .7 0 1 .1.2 0 .4.3.4.5v1.6c0 .2-.2.4-.4.4m7.5 4.8c-1.3.2-2.1.6-2.1 2 0 1 .4 1.9 2 1.9 1 0 2-.3 2.8-.9v-3.4l-2.7.4zm3.5 4.9c-1.1.9-2.5 1.4-3.9 1.4-3.4 0-4.5-2.1-4.5-4.2 0-2.8 1.8-4 4.8-4.3l2.9-.2v-.6c0-1.3-.6-1.9-2.6-1.9-1.2 0-2.4.2-3.6.6h-.1c-.2 0-.4-.2-.4-.4V4.3c0-.2.1-.3.3-.4 1.3-.4 2.7-.7 4-.7 4.3 0 5.3 1.9 5.3 4.6v8.3c0 .2-.2.4-.4.4h-1.1c-.1 0-.3-.1-.3-.2l-.4-.7zM86.2 14h.1c.2 0 .4.2.4.4v1.7c0 .2-.1.3-.2.4-1.1.4-2.2.6-3.4.5-4.6 0-6-2.8-6-6.8s1.4-6.8 6-6.8c1.1 0 2.3.1 3.3.5.1.1.2.2.2.4V6c0 .2-.2.4-.4.4h-.1c-.9-.3-1.9-.4-2.9-.4-2.5 0-3.3 1.7-3.3 4.3s.7 4.3 3.3 4.3c1.1-.2 2.1-.3 3-.6"></path></svg>
